<svg id="Capa_1" enable-background="new 0 0 512.715 512.715" height="512" viewBox="0 0 512.715 512.715" width="512" xmlns="http://www.w3.org/2000/svg"><path d="m479.061 289.144c-1.299-28.451-29.907-24.099-50.013-24.066-8.402-108.42-171.662-108.359-180.041 0h-18.446v-137.701c1.388.061 213.461 18.791 214.742 18.727 17.025-.187 16.193-18.63 17.159-30.912.759-8.669-5.678-16.34-14.347-17.098-38.495-3.442-176.73-15.409-217.554-19.034v-30.926h216.433c8.547 0 15.5-6.953 15.5-15.5.059-12.728 2.763-32.092-15.501-32.634h-365.032c-18.229.62-15.604 19.777-15.499 32.634.256 23.293 35.511 13.607 49.699 15.5v20.916c-30.671-1.026-49.448-14.213-49.668 28.129-2.129 23.598 35.833 17.068 49.668 20.189v147.709h-58.767c-27.022-.287-32.937 39.013-7.5 46.93-6.089 76.768 7.042 155.688 97.401 166.432-4.282 14.162-8.584 31.335 11.825 33.561-.001 0 30.806 0 30.806 0 9.717.14 9.741-15.142-.001-15-.651-.291-31.016.564-31.423-.301-.236-.301-.167-.58-.144-.672l4.291-17.161h187.089s4.289 17.16 4.289 17.16c.023.092.093.371-.143.672-.234.884-133.436-.003-133.959.302-9.675-.146-9.771 15.145.001 14.999 7.123-2.388 146.381 6.176 145.781-6.067 6.681-7.097 1.037-19.541-.615-27.493 90.452-10.803 103.451-89.68 97.4-166.432 9.61-3.159 16.569-12.211 16.569-22.863zm-140.034-91.911c39.012 0 71.188 29.808 74.96 67.844h-18.261c-7.857-65.085-105.549-65.049-113.392 0h-18.266c3.772-38.036 35.948-67.844 74.959-67.844zm16.568 51.267c-8.802-.155-7.599 10.675-7.5 16.577h-18.134c.091-5.911 1.306-16.727-7.501-16.577-8.798-.156-7.6 10.675-7.499 16.577h-17.454c7.452-45.462 75.604-45.438 83.046 0h-17.459c.1-5.911 1.3-16.727-7.499-16.577zm91.924-134.615-1.443 16.502c.02 2.183-50.328-4.323-51.14-3.687l1.581-18.064c.716.802 51.357 3.052 51.002 5.249zm-65.946-6.556-1.581 18.064-149.432-13.074v-18.202zm-166.012 157.748h-18.133v-216.943h18.133zm-51.267 0v-216.943h18.133v216.943zm283.2-249.577v17.134c.101 1.447-50.761.008-51.267.5v-18.134c.548.492 51.336-.946 51.267.5zm-366.033 17.134v-17.134c-.108-1.447 299.264-.008 299.767-.5v18.134c-.504-.5-299.875.957-299.767-.5zm.686 66.7c-1.758.64 1.079-16.945.731-17.351.038-.431.424-.751.85-.712l32.433 2.838v18.202zm49.014-51.2h18.133v216.943h-18.133zm316.333 283.199h-93.467c-4.143 0-7.5 3.357-7.5 7.5s3.357 7.5 7.5 7.5h93.467v18.134h-382.6v-18.134h259.133c4.143 0 7.5-3.357 7.5-7.5s-3.357-7.5-7.5-7.5h-259.133v-18.123h382.6zm-91.899 132.533h-198.8c-48.149 0-87.763-37.221-91.592-84.399h381.984c-3.83 47.179-43.444 84.399-91.592 84.399zm99.399-165.656h-397.6c-5 0-9.067-4.067-9.067-9.066s4.067-9.066 9.067-9.066h397.6c11.645-.164 11.845 18.296 0 18.132z"/></svg>