<?xml version="1.0" encoding="utf-8"?>
<!-- Generator: Adobe Illustrator 24.0.2, SVG Export Plug-In . SVG Version: 6.00 Build 0)  -->
<svg version="1.2" baseProfile="tiny" id="Layer_1" xmlns="http://www.w3.org/2000/svg" xmlns:xlink="http://www.w3.org/1999/xlink"
	 x="0px" y="0px" viewBox="0 0 362.693 51.486" xml:space="preserve">
<g>
	<text transform="matrix(1 0 0 1 240.9724 44.5367)" font-family="'Sen-Bold'" font-size="52px">B</text>
	<text transform="matrix(1 0 0 1 281.2117 44.5367)" font-family="'Sen-Bold'" font-size="52px">A</text>
	<text transform="matrix(1 0 0 1 322.6184 44.5367)" font-family="'Sen-Bold'" font-size="52px">M</text>
	<text transform="matrix(1 0 0 1 -3.0002 44.5367)" font-family="'Sen-Bold'" font-size="52px">P</text>
	<text transform="matrix(1 0 0 1 35.9695 44.5367)" font-family="'Sen-Bold'" font-size="52px">H</text>
	<text transform="matrix(1 0 0 1 81.1848 44.5367)" font-family="'Sen-Bold'" font-size="52px">A</text>
	<text transform="matrix(1 0 0 1 122.592 44.5367)" font-family="'Sen-Bold'" font-size="52px">M</text>
	<polygon points="204.418,1 210.394,19.393 229.733,19.393 214.087,30.76 220.064,49.153 204.418,37.786 188.772,49.153 
		194.748,30.76 179.102,19.393 198.441,19.393 	"/>
</g>
</svg>
