<?xml version="1.0" encoding="utf-8"?>
<!-- Generator: Adobe Illustrator 24.0.2, SVG Export Plug-In . SVG Version: 6.00 Build 0)  -->
<svg version="1.2" baseProfile="tiny" id="Layer_1" xmlns="http://www.w3.org/2000/svg" xmlns:xlink="http://www.w3.org/1999/xlink"
	 x="0px" y="0px" viewBox="0 0 164 87" xml:space="preserve">
<g>
	<text transform="matrix(1 0 0 1 42.626 85.5311)" font-family="'Sen-Bold'" font-size="52px">B</text>
	<text transform="matrix(1 0 0 1 82.8652 85.5311)" font-family="'Sen-Bold'" font-size="52px">A</text>
	<text transform="matrix(1 0 0 1 124.272 85.5311)" font-family="'Sen-Bold'" font-size="52px">M</text>
	<text transform="matrix(1 0 0 1 -1.3467 35.5311)" font-family="'Sen-Bold'" font-size="52px">P</text>
	<text transform="matrix(1 0 0 1 37.623 35.5311)" font-family="'Sen-Bold'" font-size="52px">H</text>
	<text transform="matrix(1 0 0 1 82.8384 35.5311)" font-family="'Sen-Bold'" font-size="52px">A</text>
	<text transform="matrix(1 0 0 1 124.2456 35.5311)" font-family="'Sen-Bold'" font-size="52px">M</text>
	<polygon points="18.887,50.513 23.254,63.954 37.387,63.954 25.953,72.261 30.321,85.702 18.887,77.395 7.453,85.702 
		11.821,72.261 0.387,63.954 14.52,63.954 	"/>
</g>
</svg>
