<?xml version="1.0"?>
<svg xmlns="http://www.w3.org/2000/svg" viewBox="0 0 64 64" width="512" height="512"><g id="outline"><rect x="27" y="40" width="2" height="2"/><path d="M61,10H57V5a3,3,0,0,0-3-3H43a3,3,0,0,0-3,3v5H35a1,1,0,0,0-1,1v5.2c-1.827.474-6,1.974-6,5.8V36H3a1,1,0,0,0-1,1v6A19.021,19.021,0,0,0,21,62h4A19.021,19.021,0,0,0,44,43V37a1,1,0,0,0-1-1H36V26H61a1,1,0,0,0,1-1V11A1,1,0,0,0,61,10ZM30,22c0-2.158,2.476-3.252,4-3.721V36H30ZM42,38v2H31v2H42v1a16.882,16.882,0,0,1-3.283,10H33v2h4.029A16.945,16.945,0,0,1,25,60H21A16.945,16.945,0,0,1,8.971,55H11V53H7.283A16.882,16.882,0,0,1,4,43V42H21V40H4V38ZM42,5a1,1,0,0,1,1-1H54a1,1,0,0,1,1,1v5H53V7a1,1,0,0,0-1-1H45a1,1,0,0,0-1,1v3H42Zm9,3v2H46V8Zm5,16H40V20H38v4H36V12h2v2h2V12H56Zm4,0H58V12h2Z"/><rect x="38" y="16" width="2" height="2"/><path d="M20.293,31.293a1,1,0,0,0,0,1.414l1,1a1,1,0,0,0,1.414-1.414l-1-1A1,1,0,0,0,20.293,31.293Z"/><path d="M39.293,28.293l-1,1a1,1,0,1,0,1.414,1.414l1-1a1,1,0,0,0-1.414-1.414Z"/><path d="M23.293,27.293a1,1,0,0,0,0,1.414l1,1a1,1,0,0,0,1.414-1.414l-1-1A1,1,0,0,0,23.293,27.293Z"/><path d="M42,34a1,1,0,0,0,.707-.293l1-1a1,1,0,0,0-1.414-1.414l-1,1A1,1,0,0,0,42,34Z"/><rect x="29" y="53" width="2" height="2"/></g></svg>
